<svg width="120" height="40" viewBox="0 0 120 40" fill="none" xmlns="http://www.w3.org/2000/svg">
  <defs>
    <linearGradient id="tiktokGradient" x1="0%" y1="0%" x2="100%" y2="0%">
      <stop offset="0%" style="stop-color:#ff0050;stop-opacity:1" />
      <stop offset="50%" style="stop-color:#00f2ea;stop-opacity:1" />
      <stop offset="100%" style="stop-color:#ff0050;stop-opacity:1" />
    </linearGradient>
  </defs>
  
  <!-- TikTok Icon -->
  <g transform="translate(0, 8)">
    <path d="M19.589 6.686a4.793 4.793 0 0 1-3.77-4.245V2h-3.445v13.672a2.896 2.896 0 0 1-5.201 1.803l-.002-.001.002.001a2.895 2.895 0 0 1 3.183-4.554v-3.07a5.995 5.995 0 1 0 0 11.99 5.995 5.995 0 0 0 5.996-5.996V6.688a4.797 4.797 0 0 1 3.238-4.002z" fill="url(#tiktokGradient)"/>
  </g>
  
  <!-- TikTok Text -->
  <text x="32" y="26" font-family="Arial, sans-serif" font-size="20" font-weight="bold" fill="#000000">TikTok</text>
</svg>
